<svg width="252" height="42" viewBox="0 0 252 42" fill="none" xmlns="http://www.w3.org/2000/svg">
<rect x="1.4933" y="0.5" width="41" height="41" fill="white"/>
<path d="M29.9375 16.9264C29.9502 17.104 29.9502 17.2817 29.9502 17.4594C29.9502 22.8781 25.8258 29.1218 18.2878 29.1218C15.9654 29.1218 13.8081 28.4492 11.9933 27.2817C12.3233 27.3198 12.6405 27.3325 12.9832 27.3325C14.8994 27.3325 16.6634 26.6853 18.072 25.5812C16.27 25.5431 14.7598 24.3629 14.2395 22.7386C14.4933 22.7766 14.7471 22.802 15.0137 22.802C15.3817 22.802 15.7497 22.7512 16.0923 22.6624C14.2142 22.2817 12.8055 20.632 12.8055 18.6396V18.5888C13.3512 18.8934 13.9857 19.0838 14.6583 19.1091C13.5542 18.3731 12.8309 17.1167 12.8309 15.6954C12.8309 14.934 13.0339 14.236 13.3892 13.6269C15.407 16.1142 18.44 17.7385 21.841 17.9162C21.7776 17.6117 21.7395 17.2944 21.7395 16.9772C21.7395 14.7183 23.5669 12.8782 25.8385 12.8782C27.0187 12.8782 28.0846 13.3731 28.8334 14.1726C29.7598 13.9949 30.6481 13.6523 31.4349 13.1827C31.1303 14.1345 30.4831 14.934 29.6329 15.4416C30.4578 15.3528 31.2573 15.1243 31.9933 14.8071C31.435 15.6193 30.737 16.3426 29.9375 16.9264Z" fill="#18B5DC"/>
<rect x="1.4933" y="0.5" width="41" height="41" stroke="#18B5DC"/>
<rect x="53.4933" y="0.5" width="41" height="41" fill="white"/>
<path d="M78.7725 22.25L79.3429 18.6305H75.7764V16.2816C75.7764 15.2914 76.2746 14.3262 77.8719 14.3262H79.4933V11.2445C79.4933 11.2445 78.0219 11 76.6151 11C73.678 11 71.7582 12.7336 71.7582 15.8719V18.6305H68.4933V22.25H71.7582V31H75.7764V22.25H78.7725Z" fill="#18B5DC"/>
<rect x="53.4933" y="0.5" width="41" height="41" stroke="#18B5DC"/>
<rect x="0.5" y="-0.5" width="41.0045" height="41" transform="matrix(1 0 0 -1 104.993 41)" fill="white"/>
<path d="M125.998 26.1277C123.159 26.1277 120.87 23.8383 120.87 21C120.87 18.1617 123.159 15.8723 125.998 15.8723C128.836 15.8723 131.126 18.1617 131.126 21C131.126 23.8383 128.836 26.1277 125.998 26.1277ZM125.998 17.6663C124.164 17.6663 122.664 19.1613 122.664 21C122.664 22.8387 124.159 24.3337 125.998 24.3337C127.836 24.3337 129.331 22.8387 129.331 21C129.331 19.1613 127.832 17.6663 125.998 17.6663ZM132.531 26.3375C132.531 25.6725 131.996 25.1415 131.335 25.1415C130.67 25.1415 130.139 25.677 130.139 26.3375C130.139 26.998 130.675 27.5335 131.335 27.5335C131.996 27.5335 132.531 26.998 132.531 26.3375ZM135.927 25.1236C135.852 26.7258 135.486 28.1449 134.312 29.3142C133.143 30.4834 131.724 30.8494 130.121 30.9297C128.47 31.0234 123.521 31.0234 121.87 30.9297C120.272 30.8538 118.853 30.4879 117.679 29.3186C116.505 28.1494 116.144 26.7302 116.064 25.1281C115.97 23.4768 115.97 18.5276 116.064 16.8764C116.139 15.2742 116.505 13.8551 117.679 12.6858C118.853 11.5166 120.268 11.1506 121.87 11.0703C123.521 10.9766 128.47 10.9766 130.121 11.0703C131.724 11.1462 133.143 11.5121 134.312 12.6858C135.481 13.8551 135.847 15.2742 135.927 16.8764C136.021 18.5276 136.021 23.4724 135.927 25.1236ZM133.794 15.1047C133.446 14.2299 132.772 13.5561 131.893 13.2035C130.577 12.6814 127.453 12.8019 125.998 12.8019C124.543 12.8019 121.414 12.6858 120.102 13.2035C119.228 13.5516 118.554 14.2255 118.201 15.1047C117.679 16.4212 117.8 19.5451 117.8 21C117.8 22.4549 117.684 25.5833 118.201 26.8953C118.549 27.7701 119.223 28.4439 120.102 28.7965C121.419 29.3186 124.543 29.1981 125.998 29.1981C127.453 29.1981 130.581 29.3142 131.893 28.7965C132.768 28.4484 133.442 27.7745 133.794 26.8953C134.316 25.5788 134.196 22.4549 134.196 21C134.196 19.5451 134.316 16.4167 133.794 15.1047Z" fill="#18B5DC"/>
<rect x="0.5" y="-0.5" width="41.0045" height="41" transform="matrix(1 0 0 -1 104.993 41)" stroke="#18B5DC"/>
<rect x="0.5" y="-0.5" width="41.0045" height="41" transform="matrix(1 0 0 -1 156.998 41)" fill="white"/>
<path d="M172.477 31H168.33V17.647H172.477V31ZM170.401 15.8256C169.075 15.8256 168 14.7273 168 13.4014C168 12.7645 168.253 12.1537 168.703 11.7034C169.153 11.253 169.764 11 170.401 11C171.038 11 171.649 11.253 172.099 11.7034C172.55 12.1537 172.803 12.7645 172.803 13.4014C172.803 14.7273 171.727 15.8256 170.401 15.8256ZM187.996 31H183.858V24.4999C183.858 22.9507 183.827 20.9641 181.702 20.9641C179.546 20.9641 179.216 22.6471 179.216 24.3882V31H175.074V17.647H179.051V19.4685H179.109C179.663 18.4194 181.015 17.3122 183.032 17.3122C187.229 17.3122 188 20.0756 188 23.665V31H187.996Z" fill="#18B5DC"/>
<rect x="0.5" y="-0.5" width="41.0045" height="41" transform="matrix(1 0 0 -1 156.998 41)" stroke="#18B5DC"/>
<rect x="0.5" y="-0.5" width="41.0045" height="41" transform="matrix(1 0 0 -1 209.002 41)" fill="white"/>
<path d="M239.55 14.4566L236.652 28.0342C236.434 28.9924 235.864 29.2309 235.054 28.7795L230.639 25.5469L228.509 27.5827C228.273 27.817 228.076 28.0129 227.622 28.0129L227.939 23.5452L236.121 16.1985C236.477 15.8833 236.044 15.7087 235.568 16.0239L225.453 22.3527L221.098 20.9984C220.151 20.7045 220.134 20.0571 221.295 19.6057L238.328 13.0852C239.117 12.7913 239.807 13.2598 239.55 14.4566Z" fill="#18B5DC"/>
<rect x="0.5" y="-0.5" width="41.0045" height="41" transform="matrix(1 0 0 -1 209.002 41)" stroke="#18B5DC"/>
</svg>
