<svg width="270" height="270" viewBox="0 0 270 270" fill="none" xmlns="http://www.w3.org/2000/svg">
<rect width="270" height="270" fill="#18B5DC"/>
<rect width="41.9999" height="42" transform="translate(68 114)" fill="#5DCBE6"/>
<path d="M96.9441 130.926C96.9568 131.104 96.9568 131.282 96.9568 131.459C96.9568 136.878 92.8325 143.122 85.2944 143.122C82.9721 143.122 80.8147 142.449 79 141.282C79.33 141.32 79.6472 141.332 79.9898 141.332C81.9061 141.332 83.67 140.685 85.0787 139.581C83.2766 139.543 81.7665 138.363 81.2462 136.739C81.5 136.777 81.7538 136.802 82.0203 136.802C82.3883 136.802 82.7564 136.751 83.099 136.662C81.2208 136.282 79.8121 134.632 79.8121 132.64V132.589C80.3578 132.893 80.9924 133.084 81.6649 133.109C80.5609 132.373 79.8375 131.117 79.8375 129.695C79.8375 128.934 80.0405 128.236 80.3959 127.627C82.4137 130.114 85.4467 131.739 88.8477 131.916C88.7842 131.612 88.7461 131.294 88.7461 130.977C88.7461 128.718 90.5736 126.878 92.8451 126.878C94.0253 126.878 95.0913 127.373 95.84 128.173C96.7664 127.995 97.6547 127.652 98.4416 127.183C98.137 128.135 97.4898 128.934 96.6395 129.442C97.4644 129.353 98.2639 129.124 98.9999 128.807C98.4416 129.619 97.7436 130.343 96.9441 130.926V130.926Z" fill="white"/>
<rect width="42" height="42" transform="translate(114 114)" fill="#5DCBE6"/>
<path d="M139.654 136.25L140.209 132.63H136.736V130.282C136.736 129.291 137.221 128.326 138.777 128.326H140.356V125.245C140.356 125.245 138.923 125 137.553 125C134.693 125 132.823 126.734 132.823 129.872V132.63H129.644V136.25H132.823V145H136.736V136.25H139.654Z" fill="white"/>
<rect width="42.0045" height="42" transform="translate(160 114)" fill="#5DCBE6"/>
<path d="M181.004 129.872C178.166 129.872 175.877 132.162 175.877 135C175.877 137.838 178.166 140.128 181.004 140.128C183.843 140.128 186.132 137.838 186.132 135C186.132 132.162 183.843 129.872 181.004 129.872ZM181.004 138.334C179.17 138.334 177.671 136.839 177.671 135C177.671 133.161 179.166 131.666 181.004 131.666C182.843 131.666 184.338 133.161 184.338 135C184.338 136.839 182.839 138.334 181.004 138.334V138.334ZM187.538 129.663C187.538 130.327 187.002 130.859 186.342 130.859C185.677 130.859 185.146 130.323 185.146 129.663C185.146 129.002 185.681 128.466 186.342 128.466C187.002 128.466 187.538 129.002 187.538 129.663ZM190.934 130.876C190.858 129.274 190.492 127.855 189.319 126.686C188.149 125.517 186.73 125.151 185.128 125.07C183.477 124.977 178.528 124.977 176.876 125.07C175.279 125.146 173.859 125.512 172.686 126.681C171.512 127.851 171.151 129.27 171.07 130.872C170.977 132.523 170.977 137.472 171.07 139.124C171.146 140.726 171.512 142.145 172.686 143.314C173.859 144.483 175.274 144.849 176.876 144.93C178.528 145.023 183.477 145.023 185.128 144.93C186.73 144.854 188.149 144.488 189.319 143.314C190.488 142.145 190.854 140.726 190.934 139.124C191.028 137.472 191.028 132.528 190.934 130.876V130.876ZM188.801 140.895C188.453 141.77 187.779 142.444 186.9 142.797C185.583 143.319 182.459 143.198 181.004 143.198C179.55 143.198 176.421 143.314 175.109 142.797C174.234 142.448 173.56 141.775 173.208 140.895C172.686 139.579 172.806 136.455 172.806 135C172.806 133.545 172.69 130.417 173.208 129.105C173.556 128.23 174.23 127.556 175.109 127.204C176.426 126.681 179.55 126.802 181.004 126.802C182.459 126.802 185.588 126.686 186.9 127.204C187.774 127.552 188.448 128.225 188.801 129.105C189.323 130.421 189.203 133.545 189.203 135C189.203 136.455 189.323 139.583 188.801 140.895Z" fill="white"/>
</svg>
